<svg width="29" height="29" xmlns="http://www.w3.org/2000/svg" enable-background="new 0 0 50 50">

 <g>
  <title>Layer 1</title>
  <path id="svg_1" d="m0.21729,28.74492l2.5,-9.9l14.9,-14.9l7.4,7.4l-14.9,14.9l-9.9,2.5zm4.3,-8.9l-1.5,6.1l6.1,-1.5l13.1,-13.1l-4.6,-4.6l-13.1,13.1z"/>
  <path id="svg_2" d="m8.41729,25.64492c-0.6,-2.5 -2.6,-4.5 -5.1,-5.1l0.5,-1.9c3.2,0.8 5.7,3.3 6.5,6.5l-1.9,0.5z"/>
  <path id="svg_3" d="m19.91529,7.63192l1.414,1.414l-13.01,13.02l-1.414,-1.412l13.01,-13.022z"/>
  <path id="svg_4" d="m1.61729,27.34492l2.9,-0.7c-0.3,-1.1 -1.1,-1.9 -2.2,-2.2l-0.7,2.9z"/>
  <path id="svg_5" d="m25.61729,10.74492l-7.4,-7.4l3,-3l0.5,0.1c3.6,0.5 6.4,3.3 6.9,6.9l0.1,0.5l-3.1,2.9zm-4.6,-7.4l4.6,4.6l0.9,-0.9c-0.5,-2.3 -2.3,-4.1 -4.6,-4.6l-0.9,0.9z"/>
 </g>
</svg>